<svg width="110" height="110" viewBox="0 0 110 110" fill="none" xmlns="http://www.w3.org/2000/svg">
<mask id="path-1-inside-1_2749_5024" fill="white">
<path d="M1.19789 6.83475C0.0868879 3.24764 -0.467513 1.45408 0.493338 0.493229C1.45419 -0.467624 3.24774 0.0873278 6.83485 1.19723L34.8761 9.87681C36.9752 10.5265 38.8843 11.6782 40.4381 13.232C41.9919 14.7857 43.1435 16.6949 43.7932 18.794L55.0001 55.0001L18.7935 43.7932C16.6944 43.1435 14.7853 41.9919 13.2315 40.4381C11.6777 38.8843 10.5261 36.9752 9.87635 34.876L1.19789 6.83475Z"/>
<path d="M55.0011 55.0001L91.2055 66.2063C93.3046 66.856 95.2138 68.0076 96.7676 69.5614C98.3214 71.1152 99.473 73.0243 100.123 75.1235L108.802 103.165C109.913 106.752 110.468 108.545 109.507 109.506C108.545 110.468 106.752 109.912 103.165 108.802L75.124 100.123C73.0249 99.473 71.1158 98.3213 69.562 96.7676C68.0082 95.2138 66.8566 93.3047 66.2068 91.2055L55.0011 55.0001L43.7943 91.2061C43.1445 93.3052 41.9928 95.2142 40.4391 96.768C38.8853 98.3218 36.9762 99.4734 34.8772 100.123L6.83592 108.802C3.24882 109.913 1.45526 110.468 0.494413 109.507C-0.466988 108.546 0.0879621 106.752 1.19841 103.165L9.87742 75.1241C10.5272 73.0249 11.6789 71.1157 13.2328 69.5619C14.7867 68.0081 16.6959 66.8566 18.7951 66.2069L55.0001 55.0001L66.2068 18.7946C66.8566 16.6955 68.0082 14.7864 69.562 13.2326C71.1158 11.6788 73.0249 10.5272 75.124 9.87748L103.165 1.19847C106.752 0.0874671 108.546 -0.467484 109.507 0.493918C110.468 1.45477 109.913 3.24832 108.802 6.83543L100.123 34.8767C99.4734 36.9757 98.3217 38.8848 96.7679 40.4386C95.2142 41.9924 93.3051 43.144 91.206 43.7938L55.0011 55.0001Z"/>
</mask>
<g clip-path="url(#paint0_angular_2749_5024_clip_path)" data-figma-skip-parse="true" mask="url(#path-1-inside-1_2749_5024)"><g transform="matrix(-0.005 0.0015 -0.000455802 -0.00151934 55 55)"><foreignObject x="-43959.3" y="-43959.3" width="87918.7" height="87918.7"><div xmlns="http://www.w3.org/1999/xhtml" style="background:conic-gradient(from 90deg,rgba(0, 243, 188, 1) 0deg,rgba(0, 243, 188, 1) 0.930255deg,rgba(255, 255, 255, 1) 58.7585deg,rgba(255, 255, 255, 1) 140.433deg,rgba(255, 255, 255, 1) 209.75deg,rgba(255, 255, 255, 1) 244.356deg,rgba(255, 255, 255, 1) 252.611deg,rgba(255, 255, 255, 1) 268.754deg,rgba(0, 243, 188, 1) 280.378deg,rgba(0, 243, 188, 1) 308.766deg,rgba(0, 243, 188, 1) 334.96deg,rgba(0, 243, 188, 1) 360deg);height:100%;width:100%;opacity:1"></div></foreignObject></g></g><path d="M1.19789 6.83475L2.15318 6.5391L2.15312 6.5389L1.19789 6.83475ZM6.83485 1.19723L7.13054 0.241947L7.13044 0.241916L6.83485 1.19723ZM34.8761 9.87681L34.5804 10.8321V10.8321L34.8761 9.87681ZM43.7932 18.794L42.838 19.0897V19.0897L43.7932 18.794ZM55.0001 55.0001L55.2958 55.9554L55.7994 55.7994L55.9553 55.2958L55.0001 55.0001ZM18.7935 43.7932L19.0892 42.8379L18.7935 43.7932ZM9.87635 34.876L8.92106 35.1717L8.92107 35.1717L9.87635 34.876ZM55.0011 55.0001L54.7054 54.0448L54.2017 54.2007L54.0458 54.7044L55.0011 55.0001ZM91.2055 66.2063L90.9098 67.1616L90.9098 67.1616L91.2055 66.2063ZM100.123 75.1235L99.1673 75.4192L99.1673 75.4192L100.123 75.1235ZM108.802 103.165L107.847 103.46L107.847 103.46L108.802 103.165ZM103.165 108.802L102.87 109.758L102.87 109.758L103.165 108.802ZM75.124 100.123L75.4197 99.1674H75.4197L75.124 100.123ZM66.2068 91.2055L65.2515 91.5012V91.5012L66.2068 91.2055ZM43.7943 91.2061L44.7496 91.5018L44.7496 91.5018L43.7943 91.2061ZM34.8772 100.123L35.1728 101.079L35.1729 101.079L34.8772 100.123ZM6.83592 108.802L6.54025 107.847L6.5402 107.847L6.83592 108.802ZM0.494413 109.507L1.20152 108.8L1.20132 108.799L0.494413 109.507ZM1.19841 103.165L2.15369 103.461L2.1537 103.461L1.19841 103.165ZM9.87742 75.1241L8.92214 74.8284L8.92213 74.8284L9.87742 75.1241ZM18.7951 66.2069L19.0908 67.1622L19.0908 67.1622L18.7951 66.2069ZM66.2068 18.7946L67.1621 19.0903L67.1621 19.0903L66.2068 18.7946ZM75.124 9.87748L74.8283 8.92219L74.8283 8.92219L75.124 9.87748ZM103.165 1.19847L103.461 2.15376L103.461 2.1537L103.165 1.19847ZM109.507 0.493918L108.799 1.20082L108.8 1.20102L109.507 0.493918ZM108.802 6.83543L107.847 6.5397L107.847 6.53975L108.802 6.83543ZM100.123 34.8767L101.078 35.1724L101.078 35.1723L100.123 34.8767ZM91.206 43.7938L91.5017 44.7491L91.5017 44.7491L91.206 43.7938ZM1.19789 6.83475L2.15312 6.5389C1.5876 4.713 1.20025 3.45249 1.05691 2.52621C0.913469 1.59935 1.0687 1.33209 1.20045 1.20034L0.493338 0.493229L-0.213769 -0.213877C-1.04287 0.615226 -1.09087 1.72517 -0.919567 2.83208C-0.748177 3.93956 -0.302827 5.36939 0.242657 7.13061L1.19789 6.83475ZM0.493338 0.493229L1.20045 1.20034C1.33212 1.06866 1.59929 0.913469 2.52631 1.05693C3.45272 1.2003 4.71324 1.58755 6.53926 2.15255L6.83485 1.19723L7.13044 0.241916C5.36935 -0.302988 3.93954 -0.748169 2.83218 -0.91954C1.72544 -1.09081 0.615404 -1.04305 -0.213769 -0.213877L0.493338 0.493229ZM6.83485 1.19723L6.53916 2.15252L34.5804 10.8321L34.8761 9.87681L35.1718 8.92153L7.13054 0.241947L6.83485 1.19723ZM34.8761 9.87681L34.5804 10.8321C36.5243 11.4338 38.2922 12.5002 39.731 13.9391L40.4381 13.232L41.1452 12.5248C39.4765 10.8561 37.4262 9.61932 35.1718 8.92153L34.8761 9.87681ZM40.4381 13.232L39.731 13.9391C41.1699 15.3779 42.2363 17.1458 42.838 19.0897L43.7932 18.794L44.7485 18.4983C44.0507 16.2439 42.8139 14.1936 41.1452 12.5248L40.4381 13.232ZM43.7932 18.794L42.838 19.0897L54.0448 55.2958L55.0001 55.0001L55.9553 54.7044L44.7485 18.4983L43.7932 18.794ZM55.0001 55.0001L55.2957 54.0448L19.0892 42.8379L18.7935 43.7932L18.4978 44.7485L54.7044 55.9554L55.0001 55.0001ZM18.7935 43.7932L19.0892 42.8379C17.1453 42.2363 15.3774 41.1698 13.9386 39.731L13.2315 40.4381L12.5244 41.1452C14.1931 42.8139 16.2434 44.0507 18.4978 44.7485L18.7935 43.7932ZM13.2315 40.4381L13.9386 39.731C12.4997 38.2921 11.4333 36.5242 10.8316 34.5804L9.87635 34.876L8.92107 35.1717C9.61886 37.4261 10.8557 39.4765 12.5244 41.1452L13.2315 40.4381ZM9.87635 34.876L10.8316 34.5804L2.15318 6.5391L1.19789 6.83475L0.242594 7.1304L8.92106 35.1717L9.87635 34.876ZM55.0011 55.0001L54.7054 55.9554L90.9098 67.1616L91.2055 66.2063L91.5012 65.2511L55.2968 54.0448L55.0011 55.0001ZM91.2055 66.2063L90.9098 67.1616C92.8537 67.7632 94.6216 68.8296 96.0605 70.2685L96.7676 69.5614L97.4747 68.8543C95.806 67.1855 93.7556 65.9488 91.5011 65.251L91.2055 66.2063ZM96.7676 69.5614L96.0605 70.2685C97.4993 71.7073 98.5657 73.4753 99.1673 75.4192L100.123 75.1235L101.078 74.8279C100.38 72.5734 99.1434 70.523 97.4747 68.8543L96.7676 69.5614ZM100.123 75.1235L99.1673 75.4192L107.847 103.46L108.802 103.165L109.757 102.869L101.078 74.8278L100.123 75.1235ZM108.802 103.165L107.847 103.46C108.412 105.286 108.8 106.547 108.943 107.473C109.086 108.4 108.931 108.667 108.8 108.799L109.507 109.506L110.214 110.213C111.043 109.384 111.091 108.274 110.919 107.167C110.748 106.06 110.303 104.63 109.757 102.869L108.802 103.165ZM109.507 109.506L108.8 108.799C108.668 108.931 108.4 109.086 107.473 108.943C106.547 108.799 105.287 108.412 103.461 107.847L103.165 108.802L102.87 109.758C104.63 110.302 106.06 110.748 107.167 110.919C108.274 111.091 109.384 111.043 110.214 110.213L109.507 109.506ZM103.165 108.802L103.461 107.847L75.4197 99.1674L75.124 100.123L74.8283 101.078L102.87 109.758L103.165 108.802ZM75.124 100.123L75.4197 99.1674C73.4758 98.5657 71.7079 97.4993 70.2691 96.0604L69.562 96.7676L68.8549 97.4747C70.5236 99.1434 72.5739 100.38 74.8283 101.078L75.124 100.123ZM69.562 96.7676L70.2691 96.0604C68.8302 94.6216 67.7638 92.8537 67.1621 90.9098L66.2068 91.2055L65.2515 91.5012C65.9493 93.7556 67.1861 95.8059 68.8549 97.4747L69.562 96.7676ZM66.2068 91.2055L67.1621 90.9099L55.9564 54.7044L55.0011 55.0001L54.0458 55.2957L65.2515 91.5012L66.2068 91.2055ZM55.0011 55.0001L54.0458 54.7044L42.839 90.9104L43.7943 91.2061L44.7496 91.5018L55.9564 55.2958L55.0011 55.0001ZM43.7943 91.2061L42.839 90.9104C42.2373 92.8542 41.1708 94.622 39.732 96.0609L40.4391 96.768L41.1462 97.4751C42.8149 95.8064 44.0517 93.7561 44.7496 91.5018L43.7943 91.2061ZM40.4391 96.768L39.732 96.0609C38.2931 97.4997 36.5253 98.5662 34.5814 99.168L34.8772 100.123L35.1729 101.079C37.4272 100.381 39.4775 99.1438 41.1462 97.4751L40.4391 96.768ZM34.8772 100.123L34.5815 99.168L6.54025 107.847L6.83592 108.802L7.13159 109.758L35.1728 101.079L34.8772 100.123ZM6.83592 108.802L6.5402 107.847C4.71421 108.412 3.4537 108.8 2.52732 108.943C1.60034 109.087 1.33319 108.931 1.20152 108.8L0.494413 109.507L-0.212694 110.214C0.61649 111.043 1.72654 111.091 2.83332 110.919C3.94071 110.748 5.37053 110.303 7.13164 109.758L6.83592 108.802ZM0.494413 109.507L1.20132 108.799C1.06952 108.668 0.914268 108.401 1.0577 107.474C1.20106 106.547 1.58842 105.287 2.15369 103.461L1.19841 103.165L0.243139 102.87C-0.302039 104.631 -0.747386 106.061 -0.918768 107.168C-1.09007 108.275 -1.04209 109.385 -0.212492 110.214L0.494413 109.507ZM1.19841 103.165L2.1537 103.461L10.8327 75.4197L9.87742 75.1241L8.92213 74.8284L0.243124 102.87L1.19841 103.165ZM9.87742 75.1241L10.8327 75.4198C11.4344 73.4758 12.5009 71.7079 13.9399 70.2691L13.2328 69.5619L12.5257 68.8548C10.8569 70.5235 9.61999 72.5739 8.92214 74.8284L9.87742 75.1241ZM13.2328 69.5619L13.9399 70.2691C15.3788 68.8302 17.1468 67.7638 19.0908 67.1622L18.7951 66.2069L18.4995 65.2516C16.245 65.9493 14.1945 67.1861 12.5257 68.8548L13.2328 69.5619ZM18.7951 66.2069L19.0908 67.1622L55.2958 55.9554L55.0001 55.0001L54.7044 54.0448L18.4994 65.2516L18.7951 66.2069ZM55.0001 55.0001L55.9553 55.2958L67.1621 19.0903L66.2068 18.7946L65.2516 18.4989L54.0448 54.7044L55.0001 55.0001ZM66.2068 18.7946L67.1621 19.0903C67.7638 17.1465 68.8302 15.3786 70.2691 13.9397L69.562 13.2326L68.8549 12.5255C67.1861 14.1942 65.9493 16.2446 65.2515 18.499L66.2068 18.7946ZM69.562 13.2326L70.2691 13.9397C71.7079 12.5009 73.4758 11.4344 75.4197 10.8328L75.124 9.87748L74.8283 8.92219C72.5739 9.61999 70.5236 10.8568 68.8549 12.5255L69.562 13.2326ZM75.124 9.87748L75.4197 10.8328L103.461 2.15376L103.165 1.19847L102.87 0.243179L74.8283 8.92219L75.124 9.87748ZM103.165 1.19847L103.461 2.1537C105.287 1.58816 106.548 1.20068 107.474 1.05727C108.401 0.913775 108.668 1.06904 108.799 1.20082L109.507 0.493918L110.214 -0.212987C109.385 -1.0426 108.275 -1.09057 107.168 -0.919184C106.06 -0.747722 104.631 -0.302223 102.869 0.243236L103.165 1.19847ZM109.507 0.493918L108.8 1.20102C108.931 1.33269 109.086 1.59984 108.943 2.52683C108.8 3.4532 108.412 4.71371 107.847 6.5397L108.802 6.83543L109.757 7.13115C110.303 5.37003 110.748 3.94021 110.919 2.83283C111.091 1.72605 111.043 0.615995 110.214 -0.213189L109.507 0.493918ZM108.802 6.83543L107.847 6.53975L99.1679 34.581L100.123 34.8767L101.078 35.1723L109.757 7.1311L108.802 6.83543ZM100.123 34.8767L99.1679 34.5809C98.5662 36.5248 97.4997 38.2926 96.0608 39.7315L96.7679 40.4386L97.475 41.1457C99.1437 39.477 100.381 37.4267 101.078 35.1724L100.123 34.8767ZM96.7679 40.4386L96.0608 39.7315C94.622 41.1703 92.8541 42.2368 90.9103 42.8385L91.206 43.7938L91.5017 44.7491C93.7561 44.0512 95.8064 42.8144 97.475 41.1457L96.7679 40.4386ZM91.206 43.7938L90.9103 42.8385L54.7054 54.0448L55.0011 55.0001L55.2968 55.9554L91.5017 44.7491L91.206 43.7938Z" data-figma-gradient-fill="{&#34;type&#34;:&#34;GRADIENT_ANGULAR&#34;,&#34;stops&#34;:[{&#34;color&#34;:{&#34;r&#34;:0.0,&#34;g&#34;:0.95294117927551270,&#34;b&#34;:0.73725491762161255,&#34;a&#34;:1.0},&#34;position&#34;:0.0025840420275926590},{&#34;color&#34;:{&#34;r&#34;:1.0,&#34;g&#34;:1.0,&#34;b&#34;:1.0,&#34;a&#34;:1.0},&#34;position&#34;:0.16321805119514465},{&#34;color&#34;:{&#34;r&#34;:1.0,&#34;g&#34;:1.0,&#34;b&#34;:1.0,&#34;a&#34;:1.0},&#34;position&#34;:0.39009064435958862},{&#34;color&#34;:{&#34;r&#34;:1.0,&#34;g&#34;:1.0,&#34;b&#34;:1.0,&#34;a&#34;:1.0},&#34;position&#34;:0.58263999223709106},{&#34;color&#34;:{&#34;r&#34;:1.0,&#34;g&#34;:1.0,&#34;b&#34;:1.0,&#34;a&#34;:1.0},&#34;position&#34;:0.67876732349395752},{&#34;color&#34;:{&#34;r&#34;:1.0,&#34;g&#34;:1.0,&#34;b&#34;:1.0,&#34;a&#34;:1.0},&#34;position&#34;:0.70169824361801147},{&#34;color&#34;:{&#34;r&#34;:1.0,&#34;g&#34;:1.0,&#34;b&#34;:1.0,&#34;a&#34;:1.0},&#34;position&#34;:0.74654006958007812},{&#34;color&#34;:{&#34;r&#34;:0.0,&#34;g&#34;:0.95294117927551270,&#34;b&#34;:0.73725491762161255,&#34;a&#34;:1.0},&#34;position&#34;:0.77882641553878784},{&#34;color&#34;:{&#34;r&#34;:0.0,&#34;g&#34;:0.95294117927551270,&#34;b&#34;:0.73725491762161255,&#34;a&#34;:1.0},&#34;position&#34;:0.85768294334411621},{&#34;color&#34;:{&#34;r&#34;:0.0,&#34;g&#34;:0.95294117927551270,&#34;b&#34;:0.73725491762161255,&#34;a&#34;:1.0},&#34;position&#34;:0.93044352531433105}],&#34;stopsVar&#34;:[{&#34;color&#34;:{&#34;r&#34;:0.0,&#34;g&#34;:0.95294117927551270,&#34;b&#34;:0.73725491762161255,&#34;a&#34;:1.0},&#34;position&#34;:0.0025840420275926590},{&#34;color&#34;:{&#34;r&#34;:1.0,&#34;g&#34;:1.0,&#34;b&#34;:1.0,&#34;a&#34;:1.0},&#34;position&#34;:0.16321805119514465},{&#34;color&#34;:{&#34;r&#34;:1.0,&#34;g&#34;:1.0,&#34;b&#34;:1.0,&#34;a&#34;:1.0},&#34;position&#34;:0.39009064435958862},{&#34;color&#34;:{&#34;r&#34;:1.0,&#34;g&#34;:1.0,&#34;b&#34;:1.0,&#34;a&#34;:1.0},&#34;position&#34;:0.58263999223709106},{&#34;color&#34;:{&#34;r&#34;:1.0,&#34;g&#34;:1.0,&#34;b&#34;:1.0,&#34;a&#34;:1.0},&#34;position&#34;:0.67876732349395752},{&#34;color&#34;:{&#34;r&#34;:1.0,&#34;g&#34;:1.0,&#34;b&#34;:1.0,&#34;a&#34;:1.0},&#34;position&#34;:0.70169824361801147},{&#34;color&#34;:{&#34;r&#34;:1.0,&#34;g&#34;:1.0,&#34;b&#34;:1.0,&#34;a&#34;:1.0},&#34;position&#34;:0.74654006958007812},{&#34;color&#34;:{&#34;r&#34;:0.0,&#34;g&#34;:0.95294117927551270,&#34;b&#34;:0.73725491762161255,&#34;a&#34;:1.0},&#34;position&#34;:0.77882641553878784},{&#34;color&#34;:{&#34;r&#34;:0.0,&#34;g&#34;:0.95294117927551270,&#34;b&#34;:0.73725491762161255,&#34;a&#34;:1.0},&#34;position&#34;:0.85768294334411621},{&#34;color&#34;:{&#34;r&#34;:0.0,&#34;g&#34;:0.95294117927551270,&#34;b&#34;:0.73725491762161255,&#34;a&#34;:1.0},&#34;position&#34;:0.93044352531433105}],&#34;transform&#34;:{&#34;m00&#34;:-9.9999990463256836,&#34;m01&#34;:-0.91160339117050171,&#34;m02&#34;:60.455799102783203,&#34;m10&#34;:3.0000045299530029,&#34;m11&#34;:-3.0386724472045898,&#34;m12&#34;:55.019336700439453},&#34;opacity&#34;:1.0,&#34;blendMode&#34;:&#34;NORMAL&#34;,&#34;visible&#34;:true}" mask="url(#path-1-inside-1_2749_5024)"/>
<defs>
<clipPath id="paint0_angular_2749_5024_clip_path"><path d="M1.19789 6.83475L2.15318 6.5391L2.15312 6.5389L1.19789 6.83475ZM6.83485 1.19723L7.13054 0.241947L7.13044 0.241916L6.83485 1.19723ZM34.8761 9.87681L34.5804 10.8321V10.8321L34.8761 9.87681ZM43.7932 18.794L42.838 19.0897V19.0897L43.7932 18.794ZM55.0001 55.0001L55.2958 55.9554L55.7994 55.7994L55.9553 55.2958L55.0001 55.0001ZM18.7935 43.7932L19.0892 42.8379L18.7935 43.7932ZM9.87635 34.876L8.92106 35.1717L8.92107 35.1717L9.87635 34.876ZM55.0011 55.0001L54.7054 54.0448L54.2017 54.2007L54.0458 54.7044L55.0011 55.0001ZM91.2055 66.2063L90.9098 67.1616L90.9098 67.1616L91.2055 66.2063ZM100.123 75.1235L99.1673 75.4192L99.1673 75.4192L100.123 75.1235ZM108.802 103.165L107.847 103.46L107.847 103.46L108.802 103.165ZM103.165 108.802L102.87 109.758L102.87 109.758L103.165 108.802ZM75.124 100.123L75.4197 99.1674H75.4197L75.124 100.123ZM66.2068 91.2055L65.2515 91.5012V91.5012L66.2068 91.2055ZM43.7943 91.2061L44.7496 91.5018L44.7496 91.5018L43.7943 91.2061ZM34.8772 100.123L35.1728 101.079L35.1729 101.079L34.8772 100.123ZM6.83592 108.802L6.54025 107.847L6.5402 107.847L6.83592 108.802ZM0.494413 109.507L1.20152 108.8L1.20132 108.799L0.494413 109.507ZM1.19841 103.165L2.15369 103.461L2.1537 103.461L1.19841 103.165ZM9.87742 75.1241L8.92214 74.8284L8.92213 74.8284L9.87742 75.1241ZM18.7951 66.2069L19.0908 67.1622L19.0908 67.1622L18.7951 66.2069ZM66.2068 18.7946L67.1621 19.0903L67.1621 19.0903L66.2068 18.7946ZM75.124 9.87748L74.8283 8.92219L74.8283 8.92219L75.124 9.87748ZM103.165 1.19847L103.461 2.15376L103.461 2.1537L103.165 1.19847ZM109.507 0.493918L108.799 1.20082L108.8 1.20102L109.507 0.493918ZM108.802 6.83543L107.847 6.5397L107.847 6.53975L108.802 6.83543ZM100.123 34.8767L101.078 35.1724L101.078 35.1723L100.123 34.8767ZM91.206 43.7938L91.5017 44.7491L91.5017 44.7491L91.206 43.7938ZM1.19789 6.83475L2.15312 6.5389C1.5876 4.713 1.20025 3.45249 1.05691 2.52621C0.913469 1.59935 1.0687 1.33209 1.20045 1.20034L0.493338 0.493229L-0.213769 -0.213877C-1.04287 0.615226 -1.09087 1.72517 -0.919567 2.83208C-0.748177 3.93956 -0.302827 5.36939 0.242657 7.13061L1.19789 6.83475ZM0.493338 0.493229L1.20045 1.20034C1.33212 1.06866 1.59929 0.913469 2.52631 1.05693C3.45272 1.2003 4.71324 1.58755 6.53926 2.15255L6.83485 1.19723L7.13044 0.241916C5.36935 -0.302988 3.93954 -0.748169 2.83218 -0.91954C1.72544 -1.09081 0.615404 -1.04305 -0.213769 -0.213877L0.493338 0.493229ZM6.83485 1.19723L6.53916 2.15252L34.5804 10.8321L34.8761 9.87681L35.1718 8.92153L7.13054 0.241947L6.83485 1.19723ZM34.8761 9.87681L34.5804 10.8321C36.5243 11.4338 38.2922 12.5002 39.731 13.9391L40.4381 13.232L41.1452 12.5248C39.4765 10.8561 37.4262 9.61932 35.1718 8.92153L34.8761 9.87681ZM40.4381 13.232L39.731 13.9391C41.1699 15.3779 42.2363 17.1458 42.838 19.0897L43.7932 18.794L44.7485 18.4983C44.0507 16.2439 42.8139 14.1936 41.1452 12.5248L40.4381 13.232ZM43.7932 18.794L42.838 19.0897L54.0448 55.2958L55.0001 55.0001L55.9553 54.7044L44.7485 18.4983L43.7932 18.794ZM55.0001 55.0001L55.2957 54.0448L19.0892 42.8379L18.7935 43.7932L18.4978 44.7485L54.7044 55.9554L55.0001 55.0001ZM18.7935 43.7932L19.0892 42.8379C17.1453 42.2363 15.3774 41.1698 13.9386 39.731L13.2315 40.4381L12.5244 41.1452C14.1931 42.8139 16.2434 44.0507 18.4978 44.7485L18.7935 43.7932ZM13.2315 40.4381L13.9386 39.731C12.4997 38.2921 11.4333 36.5242 10.8316 34.5804L9.87635 34.876L8.92107 35.1717C9.61886 37.4261 10.8557 39.4765 12.5244 41.1452L13.2315 40.4381ZM9.87635 34.876L10.8316 34.5804L2.15318 6.5391L1.19789 6.83475L0.242594 7.1304L8.92106 35.1717L9.87635 34.876ZM55.0011 55.0001L54.7054 55.9554L90.9098 67.1616L91.2055 66.2063L91.5012 65.2511L55.2968 54.0448L55.0011 55.0001ZM91.2055 66.2063L90.9098 67.1616C92.8537 67.7632 94.6216 68.8296 96.0605 70.2685L96.7676 69.5614L97.4747 68.8543C95.806 67.1855 93.7556 65.9488 91.5011 65.251L91.2055 66.2063ZM96.7676 69.5614L96.0605 70.2685C97.4993 71.7073 98.5657 73.4753 99.1673 75.4192L100.123 75.1235L101.078 74.8279C100.38 72.5734 99.1434 70.523 97.4747 68.8543L96.7676 69.5614ZM100.123 75.1235L99.1673 75.4192L107.847 103.46L108.802 103.165L109.757 102.869L101.078 74.8278L100.123 75.1235ZM108.802 103.165L107.847 103.46C108.412 105.286 108.8 106.547 108.943 107.473C109.086 108.4 108.931 108.667 108.8 108.799L109.507 109.506L110.214 110.213C111.043 109.384 111.091 108.274 110.919 107.167C110.748 106.06 110.303 104.63 109.757 102.869L108.802 103.165ZM109.507 109.506L108.8 108.799C108.668 108.931 108.4 109.086 107.473 108.943C106.547 108.799 105.287 108.412 103.461 107.847L103.165 108.802L102.87 109.758C104.63 110.302 106.06 110.748 107.167 110.919C108.274 111.091 109.384 111.043 110.214 110.213L109.507 109.506ZM103.165 108.802L103.461 107.847L75.4197 99.1674L75.124 100.123L74.8283 101.078L102.87 109.758L103.165 108.802ZM75.124 100.123L75.4197 99.1674C73.4758 98.5657 71.7079 97.4993 70.2691 96.0604L69.562 96.7676L68.8549 97.4747C70.5236 99.1434 72.5739 100.38 74.8283 101.078L75.124 100.123ZM69.562 96.7676L70.2691 96.0604C68.8302 94.6216 67.7638 92.8537 67.1621 90.9098L66.2068 91.2055L65.2515 91.5012C65.9493 93.7556 67.1861 95.8059 68.8549 97.4747L69.562 96.7676ZM66.2068 91.2055L67.1621 90.9099L55.9564 54.7044L55.0011 55.0001L54.0458 55.2957L65.2515 91.5012L66.2068 91.2055ZM55.0011 55.0001L54.0458 54.7044L42.839 90.9104L43.7943 91.2061L44.7496 91.5018L55.9564 55.2958L55.0011 55.0001ZM43.7943 91.2061L42.839 90.9104C42.2373 92.8542 41.1708 94.622 39.732 96.0609L40.4391 96.768L41.1462 97.4751C42.8149 95.8064 44.0517 93.7561 44.7496 91.5018L43.7943 91.2061ZM40.4391 96.768L39.732 96.0609C38.2931 97.4997 36.5253 98.5662 34.5814 99.168L34.8772 100.123L35.1729 101.079C37.4272 100.381 39.4775 99.1438 41.1462 97.4751L40.4391 96.768ZM34.8772 100.123L34.5815 99.168L6.54025 107.847L6.83592 108.802L7.13159 109.758L35.1728 101.079L34.8772 100.123ZM6.83592 108.802L6.5402 107.847C4.71421 108.412 3.4537 108.8 2.52732 108.943C1.60034 109.087 1.33319 108.931 1.20152 108.8L0.494413 109.507L-0.212694 110.214C0.61649 111.043 1.72654 111.091 2.83332 110.919C3.94071 110.748 5.37053 110.303 7.13164 109.758L6.83592 108.802ZM0.494413 109.507L1.20132 108.799C1.06952 108.668 0.914268 108.401 1.0577 107.474C1.20106 106.547 1.58842 105.287 2.15369 103.461L1.19841 103.165L0.243139 102.87C-0.302039 104.631 -0.747386 106.061 -0.918768 107.168C-1.09007 108.275 -1.04209 109.385 -0.212492 110.214L0.494413 109.507ZM1.19841 103.165L2.1537 103.461L10.8327 75.4197L9.87742 75.1241L8.92213 74.8284L0.243124 102.87L1.19841 103.165ZM9.87742 75.1241L10.8327 75.4198C11.4344 73.4758 12.5009 71.7079 13.9399 70.2691L13.2328 69.5619L12.5257 68.8548C10.8569 70.5235 9.61999 72.5739 8.92214 74.8284L9.87742 75.1241ZM13.2328 69.5619L13.9399 70.2691C15.3788 68.8302 17.1468 67.7638 19.0908 67.1622L18.7951 66.2069L18.4995 65.2516C16.245 65.9493 14.1945 67.1861 12.5257 68.8548L13.2328 69.5619ZM18.7951 66.2069L19.0908 67.1622L55.2958 55.9554L55.0001 55.0001L54.7044 54.0448L18.4994 65.2516L18.7951 66.2069ZM55.0001 55.0001L55.9553 55.2958L67.1621 19.0903L66.2068 18.7946L65.2516 18.4989L54.0448 54.7044L55.0001 55.0001ZM66.2068 18.7946L67.1621 19.0903C67.7638 17.1465 68.8302 15.3786 70.2691 13.9397L69.562 13.2326L68.8549 12.5255C67.1861 14.1942 65.9493 16.2446 65.2515 18.499L66.2068 18.7946ZM69.562 13.2326L70.2691 13.9397C71.7079 12.5009 73.4758 11.4344 75.4197 10.8328L75.124 9.87748L74.8283 8.92219C72.5739 9.61999 70.5236 10.8568 68.8549 12.5255L69.562 13.2326ZM75.124 9.87748L75.4197 10.8328L103.461 2.15376L103.165 1.19847L102.87 0.243179L74.8283 8.92219L75.124 9.87748ZM103.165 1.19847L103.461 2.1537C105.287 1.58816 106.548 1.20068 107.474 1.05727C108.401 0.913775 108.668 1.06904 108.799 1.20082L109.507 0.493918L110.214 -0.212987C109.385 -1.0426 108.275 -1.09057 107.168 -0.919184C106.06 -0.747722 104.631 -0.302223 102.869 0.243236L103.165 1.19847ZM109.507 0.493918L108.8 1.20102C108.931 1.33269 109.086 1.59984 108.943 2.52683C108.8 3.4532 108.412 4.71371 107.847 6.5397L108.802 6.83543L109.757 7.13115C110.303 5.37003 110.748 3.94021 110.919 2.83283C111.091 1.72605 111.043 0.615995 110.214 -0.213189L109.507 0.493918ZM108.802 6.83543L107.847 6.53975L99.1679 34.581L100.123 34.8767L101.078 35.1723L109.757 7.1311L108.802 6.83543ZM100.123 34.8767L99.1679 34.5809C98.5662 36.5248 97.4997 38.2926 96.0608 39.7315L96.7679 40.4386L97.475 41.1457C99.1437 39.477 100.381 37.4267 101.078 35.1724L100.123 34.8767ZM96.7679 40.4386L96.0608 39.7315C94.622 41.1703 92.8541 42.2368 90.9103 42.8385L91.206 43.7938L91.5017 44.7491C93.7561 44.0512 95.8064 42.8144 97.475 41.1457L96.7679 40.4386ZM91.206 43.7938L90.9103 42.8385L54.7054 54.0448L55.0011 55.0001L55.2968 55.9554L91.5017 44.7491L91.206 43.7938Z" mask="url(#path-1-inside-1_2749_5024)"/></clipPath></defs>
</svg>
