<svg width="36" height="36" viewBox="0 0 36 36" fill="none" xmlns="http://www.w3.org/2000/svg">
<rect x="1" y="1" width="34" height="34" rx="9" stroke="#00F3BC" stroke-width="2"/>
<path d="M21.3333 18C21.3333 18.8841 20.9821 19.7319 20.357 20.357C19.7319 20.9822 18.8841 21.3334 18 21.3334C17.1159 21.3334 16.2681 20.9822 15.643 20.357C15.0179 19.7319 14.6667 18.8841 14.6667 18C14.6667 17.116 15.0179 16.2681 15.643 15.643C16.2681 15.0179 17.1159 14.6667 18 14.6667C18.8841 14.6667 19.7319 15.0179 20.357 15.643C20.9821 16.2681 21.3333 17.116 21.3333 18ZM21.3333 18L21.3333 19.25C21.3333 19.8025 21.5528 20.3324 21.9435 20.7231C22.3342 21.1138 22.8641 21.3333 23.4167 21.3333C23.9692 21.3333 24.4991 21.1138 24.8898 20.7231C25.2805 20.3324 25.5 19.8025 25.5 19.25V18C25.5021 16.3884 24.985 14.819 24.0253 13.5243C23.0657 12.2296 21.7145 11.2785 20.172 10.8117C18.6295 10.345 16.9776 10.3876 15.4612 10.9331C13.9448 11.4787 12.6444 12.4981 11.7527 13.8406C10.861 15.183 10.4254 16.7769 10.5105 18.3862C10.5955 19.9956 11.1967 21.5347 12.225 22.7756C13.2532 24.0166 14.6538 24.8933 16.2193 25.2759C17.7848 25.6585 19.4319 25.5267 20.9167 24.9" stroke="#00F3BC" stroke-width="2" stroke-linecap="round" stroke-linejoin="round"/>
</svg>
